# xmcd
#
# Track frame offsets:
#	150
#	9743
#	27681
#	42525
#	53712
#	68873
#	87726
#	99117
#	118861
#	134660
#	147550
#
# Disc length: 2096 seconds
#
# Revision: 1
# Processed by: cddbd v1.4PL0 Copyright (c) Steve Scherf et al.
# Submitted via: CDmax 2.0
#
DISCID=a9082e0b
DTITLE=The Dave Brubeck Quartet Featuring Jimmy Rushing - Brubeck and Ruching
DYEAR=1900
DGENRE=Blues
TTITLE0=There'll Be Some Changes
TTITLE1=My Melancholy Baby
TTITLE2=Blues In Dark
TTITLE3=I Never Know (I Could Live Without You)
TTITLE4=Ain't Misbehavin'
TTITLE5=Evenin'
TTITLE6=All By Myself
TTITLE7=Blues Stay Away From My Door
TTITLE8=You Can Depend On Me
TTITLE9=Am I Blue
TTITLE10=Shine On Harvest Moon
EXTD=
EXTT0=
EXTT1=
EXTT2=
EXTT3=
EXTT4=
EXTT5=
EXTT6=
EXTT7=
EXTT8=
EXTT9=
EXTT10=
PLAYORDER=
